<?xml version="1.0" encoding="UTF-8" standalone="no"?>
<!DOCTYPE svg PUBLIC "-//W3C//DTD SVG 1.0//EN"
 "http://www.w3.org/TR/2001/REC-SVG-20010904/DTD/svg10.dtd" [
 <!ATTLIST svg xmlns:xlink CDATA #FIXED "http://www.w3.org/1999/xlink">
]>
<!-- Generated by Graphviz version 2.20.2 (Tue Mar &#160;2 21:46:26 UTC 2010)
     For user: (aliadnan) Ali Adnan,,, -->
<!-- Title: models_diagram Pages: 1 -->
<svg width="945pt" height="398pt"
 viewBox="0.00 0.00 945.00 398.00" xmlns="http://www.w3.org/2000/svg" xmlns:xlink="http://www.w3.org/1999/xlink">
<g id="graph0" class="graph" transform="scale(1 1) rotate(0) translate(4 394)">
<title>models_diagram</title>
<polygon style="fill:white;stroke:white;" points="-4,4 -4,-394 941,-394 941,4 -4,4"/>
<!-- _diagram_info -->
<g id="node1" class="node"><title>_diagram_info</title>
<text text-anchor="start" x="7.5" y="-373.8" style="font-family:Times New Roman;font-size:13.00;">Models diagram</text>
<text text-anchor="start" x="7.5" y="-356.8" style="font-family:Times New Roman;font-size:13.00;">Date: Jul 05 2011 &#45; 10:04</text>
<text text-anchor="start" x="7.5" y="-339.8" style="font-family:Times New Roman;font-size:13.00;">Migration version: 20110627174435</text>
<text text-anchor="start" x="7.5" y="-322.8" style="font-family:Times New Roman;font-size:13.00;">Generated by RailRoady 1.0.2</text>
<text text-anchor="start" x="7.5" y="-305.8" style="font-family:Times New Roman;font-size:13.00;">http://railroady.prestonlee.com</text>
</g>
<!-- Comment -->
<g id="node2" class="node"><title>Comment</title>
<ellipse style="fill:none;stroke:black;" cx="177" cy="-18" rx="57.1737" ry="18"/>
<text text-anchor="middle" x="177" y="-13.9" style="font-family:Times New Roman;font-size:14.00;">Comment</text>
</g>
<!-- User -->
<g id="node3" class="node"><title>User</title>
<ellipse style="fill:none;stroke:black;" cx="299" cy="-343" rx="32.8565" ry="18"/>
<text text-anchor="middle" x="299" y="-338.9" style="font-family:Times New Roman;font-size:14.00;">User</text>
</g>
<!-- User&#45;&gt;User -->
<g id="edge2" class="edge"><title>User&#45;&gt;User</title>
<path style="fill:none;stroke:black;" d="M341,-346C347,-346 350,-344 350,-343 350,-342 347,-340 341,-340"/>
<polygon style="fill:black;stroke:black;" points="340.95,-346.005 330.552,-342.522 335.975,-346.502 331,-347 331,-347 331,-347 335.975,-346.502 331.448,-351.478 340.95,-346.005 340.95,-346.005"/>
<polygon style="fill:black;stroke:black;" points="340.95,-339.995 331.448,-334.522 335.975,-339.498 331,-339 331,-339 331,-339 335.975,-339.498 330.552,-343.478 340.95,-339.995 340.95,-339.995"/>
<text text-anchor="middle" x="374" y="-338.9" style="font-family:Times New Roman;font-size:14.00;">friends</text>
</g>
<!-- User&#45;&gt;User -->
<g id="edge4" class="edge"><title>User&#45;&gt;User</title>
<path style="fill:none;stroke:black;" d="M334,-357C363,-363 397,-358 397,-343 397,-328 363,-323 334,-329"/>
<polygon style="fill:black;stroke:black;" points="333.806,-356.961 324.883,-350.587 328.903,-355.981 324,-355 324,-355 324,-355 328.903,-355.981 323.117,-359.413 333.806,-356.961 333.806,-356.961"/>
<polygon style="fill:black;stroke:black;" points="333.806,-329.039 323.117,-326.587 328.903,-330.019 324,-331 324,-331 324,-331 328.903,-330.019 324.883,-335.413 333.806,-329.039 333.806,-329.039"/>
<text text-anchor="middle" x="459" y="-338.9" style="font-family:Times New Roman;font-size:14.00;">requested_friends</text>
</g>
<!-- User&#45;&gt;User -->
<g id="edge6" class="edge"><title>User&#45;&gt;User</title>
<path style="fill:none;stroke:black;" d="M335,-356C399,-369 520,-365 520,-343 520,-321 399,-317 335,-330"/>
<polygon style="fill:black;stroke:black;" points="334.806,-355.961 325.883,-349.587 329.903,-354.981 325,-354 325,-354 325,-354 329.903,-354.981 324.117,-358.413 334.806,-355.961 334.806,-355.961"/>
<polygon style="fill:black;stroke:black;" points="334.806,-330.039 324.117,-327.587 329.903,-331.019 325,-332 325,-332 325,-332 329.903,-331.019 325.883,-336.413 334.806,-330.039 334.806,-330.039"/>
<text text-anchor="middle" x="575" y="-338.9" style="font-family:Times New Roman;font-size:14.00;">pending_friends</text>
</g>
<!-- Friendship -->
<g id="node4" class="node"><title>Friendship</title>
<ellipse style="fill:none;stroke:black;" cx="335" cy="-240" rx="59.9551" ry="18"/>
<text text-anchor="middle" x="335" y="-235.9" style="font-family:Times New Roman;font-size:14.00;">Friendship</text>
</g>
<!-- User&#45;&gt;Friendship -->
<g id="edge8" class="edge"><title>User&#45;&gt;Friendship</title>
<path style="fill:none;stroke:black;" d="M308,-317C314,-302 320,-283 326,-267"/>
<ellipse style="fill:none;stroke:black;" cx="306.405" cy="-321.255" rx="4.00001" ry="4.00001"/>
<polygon style="fill:black;stroke:black;" points="325.838,-267.487 333.269,-259.423 327.419,-262.743 329,-258 329,-258 329,-258 327.419,-262.743 324.731,-256.577 325.838,-267.487 325.838,-267.487"/>
</g>
<!-- Activity -->
<g id="node6" class="node"><title>Activity</title>
<ellipse style="fill:none;stroke:black;" cx="177" cy="-92" rx="47.9469" ry="18"/>
<text text-anchor="middle" x="177" y="-87.9" style="font-family:Times New Roman;font-size:14.00;">Activity</text>
</g>
<!-- User&#45;&gt;Activity -->
<g id="edge14" class="edge"><title>User&#45;&gt;Activity</title>
<path style="fill:none;stroke:black;" d="M282,-320C275,-311 267,-302 257,-296 167,-231 91,-279 34,-184 26,-170 25,-161 34,-148 45,-131 91,-116 127,-105"/>
<ellipse style="fill:none;stroke:black;" cx="284.439" cy="-322.927" rx="4.00002" ry="4.00002"/>
<polygon style="fill:black;stroke:black;" points="127.422,-104.874 138.293,-106.31 132.211,-103.437 137,-102 137,-102 137,-102 132.211,-103.437 135.707,-97.6898 127.422,-104.874 127.422,-104.874"/>
</g>
<!-- Album -->
<g id="node9" class="node"><title>Album</title>
<ellipse style="fill:none;stroke:black;" cx="216" cy="-240" rx="41.1906" ry="18"/>
<text text-anchor="middle" x="216" y="-235.9" style="font-family:Times New Roman;font-size:14.00;">Album</text>
</g>
<!-- User&#45;&gt;Album -->
<g id="edge12" class="edge"><title>User&#45;&gt;Album</title>
<path style="fill:none;stroke:black;" d="M280,-319C267,-303 249,-282 236,-265"/>
<ellipse style="fill:none;stroke:black;" cx="283.397" cy="-322.963" rx="4.00002" ry="4.00002"/>
<polygon style="fill:black;stroke:black;" points="236,-265 233.6,-254.3 233,-261 230,-257 230,-257 230,-257 233,-261 226.4,-259.7 236,-265 236,-265"/>
</g>
<!-- Tag -->
<g id="node12" class="node"><title>Tag</title>
<ellipse style="fill:none;stroke:black;" cx="400" cy="-92" rx="27.1004" ry="18"/>
<text text-anchor="middle" x="400" y="-87.9" style="font-family:Times New Roman;font-size:14.00;">Tag</text>
</g>
<!-- User&#45;&gt;Tag -->
<g id="edge10" class="edge"><title>User&#45;&gt;Tag</title>
<path style="fill:none;stroke:black;" d="M331,-327C357,-312 389,-289 404,-258 426,-214 416,-154 408,-120"/>
<ellipse style="fill:none;stroke:black;" cx="327.473" cy="-329.015" rx="4.00002" ry="4.00002"/>
<polygon style="fill:black;stroke:black;" points="407.961,-119.806 410.413,-109.117 406.981,-114.903 406,-110 406,-110 406,-110 406.981,-114.903 401.587,-110.883 407.961,-119.806 407.961,-119.806"/>
</g>
<!-- Photo -->
<g id="node5" class="node"><title>Photo</title>
<ellipse style="fill:none;stroke:black;" cx="356" cy="-166" rx="39.1069" ry="18"/>
<text text-anchor="middle" x="356" y="-161.9" style="font-family:Times New Roman;font-size:14.00;">Photo</text>
</g>
<!-- Photo&#45;&gt;Activity -->
<g id="edge18" class="edge"><title>Photo&#45;&gt;Activity</title>
<path style="fill:none;stroke:black;" d="M320,-151C290,-139 247,-121 217,-108"/>
<ellipse style="fill:none;stroke:black;" cx="323.323" cy="-152.424" rx="4.00002" ry="4.00002"/>
<ellipse style="fill:black;stroke:black;" cx="212.745" cy="-106.405" rx="4.00001" ry="4.00001"/>
</g>
<!-- Photo&#45;&gt;Tag -->
<g id="edge16" class="edge"><title>Photo&#45;&gt;Tag</title>
<path style="fill:none;stroke:black;" d="M370,-141C375,-133 380,-125 385,-118"/>
<ellipse style="fill:none;stroke:black;" cx="367.985" cy="-144.527" rx="4.00002" ry="4.00002"/>
<polygon style="fill:black;stroke:black;" points="385.144,-117.742 393.934,-111.185 387.572,-113.371 390,-109 390,-109 390,-109 387.572,-113.371 386.066,-106.815 385.144,-117.742 385.144,-117.742"/>
</g>
<!-- Activity&#45;&gt;Comment -->
<g id="edge20" class="edge"><title>Activity&#45;&gt;Comment</title>
<path style="fill:none;stroke:black;" d="M177,-66C177,-60 177,-53 177,-46"/>
<ellipse style="fill:none;stroke:black;" cx="177" cy="-70" rx="4" ry="4"/>
<polygon style="fill:black;stroke:black;" points="177,-46 181.5,-36 177,-41 177,-36 177,-36 177,-36 177,-41 172.5,-36 177,-46 177,-46"/>
</g>
<!-- UserSession -->
<g id="node7" class="node"><title>UserSession</title>
<polygon style="fill:none;stroke:black;" points="859,-258 761,-258 761,-222 859,-222 859,-258"/>
<text text-anchor="middle" x="810" y="-235.9" style="font-family:Times New Roman;font-size:14.00;">UserSession</text>
</g>
<!-- Video -->
<g id="node8" class="node"><title>Video</title>
<ellipse style="fill:none;stroke:black;" cx="80" cy="-166" rx="37.0233" ry="18"/>
<text text-anchor="middle" x="80" y="-161.9" style="font-family:Times New Roman;font-size:14.00;">Video</text>
</g>
<!-- Video&#45;&gt;Activity -->
<g id="edge24" class="edge"><title>Video&#45;&gt;Activity</title>
<path style="fill:none;stroke:black;" d="M107,-146C120,-136 136,-123 149,-113"/>
<ellipse style="fill:none;stroke:black;" cx="103.255" cy="-148.675" rx="4.00002" ry="4.00002"/>
<ellipse style="fill:black;stroke:black;" cx="152.745" cy="-110.325" rx="4.00002" ry="4.00002"/>
</g>
<!-- Album&#45;&gt;Photo -->
<g id="edge26" class="edge"><title>Album&#45;&gt;Photo</title>
<path style="fill:none;stroke:black;" d="M249,-222C271,-211 299,-196 321,-185"/>
<ellipse style="fill:none;stroke:black;" cx="245.473" cy="-224.015" rx="4.00002" ry="4.00002"/>
<polygon style="fill:black;stroke:black;" points="321.258,-184.856 332.185,-183.934 325.629,-182.428 330,-180 330,-180 330,-180 325.629,-182.428 327.815,-176.066 321.258,-184.856 321.258,-184.856"/>
</g>
<!-- Status -->
<g id="node10" class="node"><title>Status</title>
<ellipse style="fill:none;stroke:black;" cx="177" cy="-166" rx="41.8891" ry="18"/>
<text text-anchor="middle" x="177" y="-161.9" style="font-family:Times New Roman;font-size:14.00;">Status</text>
</g>
<!-- Status&#45;&gt;Activity -->
<g id="edge28" class="edge"><title>Status&#45;&gt;Activity</title>
<path style="fill:none;stroke:black;" d="M177,-140C177,-133 177,-125 177,-118"/>
<ellipse style="fill:none;stroke:black;" cx="177" cy="-144" rx="4" ry="4"/>
<ellipse style="fill:black;stroke:black;" cx="177" cy="-114" rx="4" ry="4"/>
</g>
<!-- Link -->
<g id="node11" class="node"><title>Link</title>
<ellipse style="fill:none;stroke:black;" cx="268" cy="-166" rx="30.7734" ry="18"/>
<text text-anchor="middle" x="268" y="-161.9" style="font-family:Times New Roman;font-size:14.00;">Link</text>
</g>
<!-- Link&#45;&gt;Activity -->
<g id="edge30" class="edge"><title>Link&#45;&gt;Activity</title>
<path style="fill:none;stroke:black;" d="M244,-146C231,-136 216,-123 203,-113"/>
<ellipse style="fill:none;stroke:black;" cx="246.927" cy="-148.439" rx="4.00002" ry="4.00002"/>
<ellipse style="fill:black;stroke:black;" cx="200.073" cy="-110.561" rx="4.00002" ry="4.00002"/>
</g>
<!-- Authlogic::Session::Base -->
<g id="node23" class="node"><title>Authlogic::Session::Base</title>
<ellipse style="fill:none;stroke:black;" cx="810" cy="-343" rx="127.163" ry="18"/>
<text text-anchor="middle" x="810" y="-338.9" style="font-family:Times New Roman;font-size:14.00;">Authlogic::Session::Base</text>
</g>
<!-- Authlogic::Session::Base&#45;&gt;UserSession -->
<g id="edge22" class="edge"><title>Authlogic::Session::Base&#45;&gt;UserSession</title>
<path style="fill:none;stroke:black;" d="M810,-315C810,-297 810,-274 810,-258"/>
<polygon style="fill:none;stroke:black;" points="806.5,-315 810,-325 813.5,-315 806.5,-315"/>
</g>
</g>
</svg>
