<?xml version="1.0" encoding="UTF-8" standalone="no"?>
<!DOCTYPE svg PUBLIC "-//W3C//DTD SVG 1.0//EN"
 "http://www.w3.org/TR/2001/REC-SVG-20010904/DTD/svg10.dtd" [
 <!ATTLIST svg xmlns:xlink CDATA #FIXED "http://www.w3.org/1999/xlink">
]>
<!-- Generated by Graphviz version 2.20.2 (Tue Mar &#160;2 21:46:26 UTC 2010)
     For user: (aliadnan) Ali Adnan,,, -->
<!-- Title: controllers_diagram Pages: 1 -->
<svg width="959pt" height="907pt"
 viewBox="0.00 0.00 959.00 907.00" xmlns="http://www.w3.org/2000/svg" xmlns:xlink="http://www.w3.org/1999/xlink">
<g id="graph0" class="graph" transform="scale(1 1) rotate(0) translate(4 903)">
<title>controllers_diagram</title>
<polygon style="fill:white;stroke:white;" points="-4,4 -4,-903 955,-903 955,4 -4,4"/>
<!-- _diagram_info -->
<g id="node1" class="node"><title>_diagram_info</title>
<text text-anchor="start" x="54.5" y="-146.8" style="font-family:Times New Roman;font-size:13.00;">Controllers diagram</text>
<text text-anchor="start" x="54.5" y="-129.8" style="font-family:Times New Roman;font-size:13.00;">Date: Jul 05 2011 &#45; 10:05</text>
<text text-anchor="start" x="54.5" y="-112.8" style="font-family:Times New Roman;font-size:13.00;">Migration version: 20110627174435</text>
<text text-anchor="start" x="54.5" y="-95.8" style="font-family:Times New Roman;font-size:13.00;">Generated by RailRoady 1.0.2</text>
<text text-anchor="start" x="54.5" y="-78.8" style="font-family:Times New Roman;font-size:13.00;">http://railroady.prestonlee.com</text>
</g>
<!-- WallController -->
<g id="node2" class="node"><title>WallController</title>
<polyline style="fill:none;stroke:black;" points="519,-529 732,-529 "/>
<path style="fill:none;stroke:black;" d="M732,-529C738,-529 744,-535 744,-541"/>
<polyline style="fill:none;stroke:black;" points="744,-541 744,-752 "/>
<path style="fill:none;stroke:black;" d="M744,-752C744,-758 738,-764 732,-764"/>
<polyline style="fill:none;stroke:black;" points="732,-764 519,-764 "/>
<path style="fill:none;stroke:black;" d="M519,-764C513,-764 507,-758 507,-752"/>
<polyline style="fill:none;stroke:black;" points="507,-752 507,-541 "/>
<path style="fill:none;stroke:black;" d="M507,-541C507,-535 513,-529 519,-529"/>
<text text-anchor="middle" x="625" y="-746.9" style="font-family:Times New Roman;font-size:14.00;">WallController</text>
<polyline style="fill:none;stroke:black;" points="507,-739 744,-739 "/>
<text text-anchor="start" x="514.5" y="-722.4" style="font-family:Times New Roman;font-size:14.00;">_one_time_conditions_valid_76?</text>
<text text-anchor="start" x="514.5" y="-705.4" style="font-family:Times New Roman;font-size:14.00;">comment</text>
<text text-anchor="start" x="514.5" y="-688.4" style="font-family:Times New Roman;font-size:14.00;">index</text>
<text text-anchor="start" x="514.5" y="-671.4" style="font-family:Times New Roman;font-size:14.00;">link</text>
<text text-anchor="start" x="514.5" y="-654.4" style="font-family:Times New Roman;font-size:14.00;">photo</text>
<text text-anchor="start" x="514.5" y="-637.4" style="font-family:Times New Roman;font-size:14.00;">show</text>
<text text-anchor="start" x="514.5" y="-620.4" style="font-family:Times New Roman;font-size:14.00;">user_status</text>
<text text-anchor="start" x="514.5" y="-603.4" style="font-family:Times New Roman;font-size:14.00;">video</text>
<polyline style="fill:none;stroke:black;" points="507,-595 744,-595 "/>
<polyline style="fill:none;stroke:black;" points="507,-571 744,-571 "/>
<text text-anchor="start" x="514.5" y="-554.4" style="font-family:Times New Roman;font-size:14.00;">_layout</text>
<text text-anchor="start" x="514.5" y="-537.4" style="font-family:Times New Roman;font-size:14.00;">_run_process_action_callbacks</text>
</g>
<!-- ProfileStepsController -->
<g id="node3" class="node"><title>ProfileStepsController</title>
<polyline style="fill:none;stroke:black;" points="726,-0 939,-0 "/>
<path style="fill:none;stroke:black;" d="M939,-0C945,-0 951,-6 951,-12"/>
<polyline style="fill:none;stroke:black;" points="951,-12 951,-155 "/>
<path style="fill:none;stroke:black;" d="M951,-155C951,-161 945,-167 939,-167"/>
<polyline style="fill:none;stroke:black;" points="939,-167 726,-167 "/>
<path style="fill:none;stroke:black;" d="M726,-167C720,-167 714,-161 714,-155"/>
<polyline style="fill:none;stroke:black;" points="714,-155 714,-12 "/>
<path style="fill:none;stroke:black;" d="M714,-12C714,-6 720,-0 726,-0"/>
<text text-anchor="middle" x="832" y="-149.9" style="font-family:Times New Roman;font-size:14.00;">ProfileStepsController</text>
<polyline style="fill:none;stroke:black;" points="714,-142 951,-142 "/>
<text text-anchor="start" x="721.5" y="-125.4" style="font-family:Times New Roman;font-size:14.00;">_one_time_conditions_valid_78?</text>
<text text-anchor="start" x="721.5" y="-108.4" style="font-family:Times New Roman;font-size:14.00;">invite_friends</text>
<text text-anchor="start" x="721.5" y="-91.4" style="font-family:Times New Roman;font-size:14.00;">profile_info</text>
<text text-anchor="start" x="721.5" y="-74.4" style="font-family:Times New Roman;font-size:14.00;">profile_picture</text>
<polyline style="fill:none;stroke:black;" points="714,-66 951,-66 "/>
<polyline style="fill:none;stroke:black;" points="714,-42 951,-42 "/>
<text text-anchor="start" x="721.5" y="-25.4" style="font-family:Times New Roman;font-size:14.00;">_layout</text>
<text text-anchor="start" x="721.5" y="-8.4" style="font-family:Times New Roman;font-size:14.00;">_run_process_action_callbacks</text>
</g>
<!-- ImportContactsController -->
<g id="node4" class="node"><title>ImportContactsController</title>
<polyline style="fill:none;stroke:black;" points="13,-391 181,-391 "/>
<path style="fill:none;stroke:black;" d="M181,-391C187,-391 193,-397 193,-403"/>
<polyline style="fill:none;stroke:black;" points="193,-403 193,-512 "/>
<path style="fill:none;stroke:black;" d="M193,-512C193,-518 187,-524 181,-524"/>
<polyline style="fill:none;stroke:black;" points="181,-524 13,-524 "/>
<path style="fill:none;stroke:black;" d="M13,-524C7,-524 1,-518 1,-512"/>
<polyline style="fill:none;stroke:black;" points="1,-512 1,-403 "/>
<path style="fill:none;stroke:black;" d="M1,-403C1,-397 7,-391 13,-391"/>
<text text-anchor="middle" x="97" y="-506.9" style="font-family:Times New Roman;font-size:14.00;">ImportContactsController</text>
<polyline style="fill:none;stroke:black;" points="1,-499 193,-499 "/>
<text text-anchor="start" x="9" y="-481.9" style="font-family:Times New Roman;font-size:14.00;">import</text>
<text text-anchor="start" x="9" y="-464.9" style="font-family:Times New Roman;font-size:14.00;">invite</text>
<text text-anchor="start" x="9" y="-447.9" style="font-family:Times New Roman;font-size:14.00;">invite_friends</text>
<polyline style="fill:none;stroke:black;" points="1,-440 193,-440 "/>
<polyline style="fill:none;stroke:black;" points="1,-416 193,-416 "/>
<text text-anchor="start" x="9" y="-398.9" style="font-family:Times New Roman;font-size:14.00;">_layout</text>
</g>
<!-- FriendsController -->
<g id="node5" class="node"><title>FriendsController</title>
<polyline style="fill:none;stroke:black;" points="266,-553 479,-553 "/>
<path style="fill:none;stroke:black;" d="M479,-553C485,-553 491,-559 491,-565"/>
<polyline style="fill:none;stroke:black;" points="491,-565 491,-759 "/>
<path style="fill:none;stroke:black;" d="M491,-759C491,-765 485,-771 479,-771"/>
<polyline style="fill:none;stroke:black;" points="479,-771 266,-771 "/>
<path style="fill:none;stroke:black;" d="M266,-771C260,-771 254,-765 254,-759"/>
<polyline style="fill:none;stroke:black;" points="254,-759 254,-565 "/>
<path style="fill:none;stroke:black;" d="M254,-565C254,-559 260,-553 266,-553"/>
<text text-anchor="middle" x="372" y="-753.9" style="font-family:Times New Roman;font-size:14.00;">FriendsController</text>
<polyline style="fill:none;stroke:black;" points="254,-746 491,-746 "/>
<text text-anchor="start" x="261.5" y="-728.9" style="font-family:Times New Roman;font-size:14.00;">_one_time_conditions_valid_80?</text>
<text text-anchor="start" x="261.5" y="-711.9" style="font-family:Times New Roman;font-size:14.00;">create</text>
<text text-anchor="start" x="261.5" y="-694.9" style="font-family:Times New Roman;font-size:14.00;">destroy</text>
<text text-anchor="start" x="261.5" y="-677.9" style="font-family:Times New Roman;font-size:14.00;">index</text>
<text text-anchor="start" x="261.5" y="-660.9" style="font-family:Times New Roman;font-size:14.00;">new</text>
<text text-anchor="start" x="261.5" y="-643.9" style="font-family:Times New Roman;font-size:14.00;">show</text>
<text text-anchor="start" x="261.5" y="-626.9" style="font-family:Times New Roman;font-size:14.00;">update</text>
<polyline style="fill:none;stroke:black;" points="254,-619 491,-619 "/>
<polyline style="fill:none;stroke:black;" points="254,-595 491,-595 "/>
<text text-anchor="start" x="261.5" y="-578.4" style="font-family:Times New Roman;font-size:14.00;">_layout</text>
<text text-anchor="start" x="261.5" y="-561.4" style="font-family:Times New Roman;font-size:14.00;">_run_process_action_callbacks</text>
</g>
<!-- AlbumsController -->
<g id="node6" class="node"><title>AlbumsController</title>
<polyline style="fill:none;stroke:black;" points="473,-47 686,-47 "/>
<path style="fill:none;stroke:black;" d="M686,-47C692,-47 698,-53 698,-59"/>
<polyline style="fill:none;stroke:black;" points="698,-59 698,-219 "/>
<path style="fill:none;stroke:black;" d="M698,-219C698,-225 692,-231 686,-231"/>
<polyline style="fill:none;stroke:black;" points="686,-231 473,-231 "/>
<path style="fill:none;stroke:black;" d="M473,-231C467,-231 461,-225 461,-219"/>
<polyline style="fill:none;stroke:black;" points="461,-219 461,-59 "/>
<path style="fill:none;stroke:black;" d="M461,-59C461,-53 467,-47 473,-47"/>
<text text-anchor="middle" x="579" y="-213.9" style="font-family:Times New Roman;font-size:14.00;">AlbumsController</text>
<polyline style="fill:none;stroke:black;" points="461,-206 698,-206 "/>
<text text-anchor="start" x="468.5" y="-188.9" style="font-family:Times New Roman;font-size:14.00;">_one_time_conditions_valid_84?</text>
<text text-anchor="start" x="468.5" y="-171.9" style="font-family:Times New Roman;font-size:14.00;">create</text>
<text text-anchor="start" x="468.5" y="-154.9" style="font-family:Times New Roman;font-size:14.00;">index</text>
<text text-anchor="start" x="468.5" y="-137.9" style="font-family:Times New Roman;font-size:14.00;">new</text>
<text text-anchor="start" x="468.5" y="-120.9" style="font-family:Times New Roman;font-size:14.00;">show</text>
<polyline style="fill:none;stroke:black;" points="461,-113 698,-113 "/>
<polyline style="fill:none;stroke:black;" points="461,-89 698,-89 "/>
<text text-anchor="start" x="468.5" y="-72.4" style="font-family:Times New Roman;font-size:14.00;">_layout</text>
<text text-anchor="start" x="468.5" y="-55.4" style="font-family:Times New Roman;font-size:14.00;">_run_process_action_callbacks</text>
</g>
<!-- ApplicationController -->
<g id="node7" class="node"><title>ApplicationController</title>
<polyline style="fill:none;stroke:black;" points="473,-254 686,-254 "/>
<path style="fill:none;stroke:black;" d="M686,-254C692,-254 698,-260 698,-266"/>
<polyline style="fill:none;stroke:black;" points="698,-266 698,-494 "/>
<path style="fill:none;stroke:black;" d="M698,-494C698,-500 692,-506 686,-506"/>
<polyline style="fill:none;stroke:black;" points="686,-506 473,-506 "/>
<path style="fill:none;stroke:black;" d="M473,-506C467,-506 461,-500 461,-494"/>
<polyline style="fill:none;stroke:black;" points="461,-494 461,-266 "/>
<path style="fill:none;stroke:black;" d="M461,-266C461,-260 467,-254 473,-254"/>
<text text-anchor="middle" x="579" y="-488.9" style="font-family:Times New Roman;font-size:14.00;">ApplicationController</text>
<polyline style="fill:none;stroke:black;" points="461,-481 698,-481 "/>
<text text-anchor="start" x="468.5" y="-463.9" style="font-family:Times New Roman;font-size:14.00;">_one_time_conditions_valid_74?</text>
<text text-anchor="start" x="468.5" y="-446.9" style="font-family:Times New Roman;font-size:14.00;">current_user</text>
<text text-anchor="start" x="468.5" y="-429.9" style="font-family:Times New Roman;font-size:14.00;">current_user_session</text>
<text text-anchor="start" x="468.5" y="-412.9" style="font-family:Times New Roman;font-size:14.00;">is_mainnav_active?</text>
<text text-anchor="start" x="468.5" y="-395.9" style="font-family:Times New Roman;font-size:14.00;">logged_in?</text>
<text text-anchor="start" x="468.5" y="-378.9" style="font-family:Times New Roman;font-size:14.00;">redirect_back_or_default</text>
<text text-anchor="start" x="468.5" y="-361.9" style="font-family:Times New Roman;font-size:14.00;">require_no_user</text>
<text text-anchor="start" x="468.5" y="-344.9" style="font-family:Times New Roman;font-size:14.00;">require_user</text>
<text text-anchor="start" x="468.5" y="-327.9" style="font-family:Times New Roman;font-size:14.00;">store_location</text>
<polyline style="fill:none;stroke:black;" points="461,-320 698,-320 "/>
<polyline style="fill:none;stroke:black;" points="461,-296 698,-296 "/>
<text text-anchor="start" x="468.5" y="-279.4" style="font-family:Times New Roman;font-size:14.00;">_layout</text>
<text text-anchor="start" x="468.5" y="-262.4" style="font-family:Times New Roman;font-size:14.00;">_run_process_action_callbacks</text>
</g>
<!-- PagesController -->
<g id="node8" class="node"><title>PagesController</title>
<polyline style="fill:none;stroke:black;" points="726,-184 827,-184 "/>
<path style="fill:none;stroke:black;" d="M827,-184C833,-184 839,-190 839,-196"/>
<polyline style="fill:none;stroke:black;" points="839,-196 839,-271 "/>
<path style="fill:none;stroke:black;" d="M839,-271C839,-277 833,-283 827,-283"/>
<polyline style="fill:none;stroke:black;" points="827,-283 726,-283 "/>
<path style="fill:none;stroke:black;" d="M726,-283C720,-283 714,-277 714,-271"/>
<polyline style="fill:none;stroke:black;" points="714,-271 714,-196 "/>
<path style="fill:none;stroke:black;" d="M714,-196C714,-190 720,-184 726,-184"/>
<text text-anchor="middle" x="776" y="-265.9" style="font-family:Times New Roman;font-size:14.00;">PagesController</text>
<polyline style="fill:none;stroke:black;" points="714,-258 839,-258 "/>
<text text-anchor="start" x="721.5" y="-240.9" style="font-family:Times New Roman;font-size:14.00;">index</text>
<polyline style="fill:none;stroke:black;" points="714,-233 839,-233 "/>
<polyline style="fill:none;stroke:black;" points="714,-209 839,-209 "/>
<text text-anchor="start" x="721.5" y="-191.9" style="font-family:Times New Roman;font-size:14.00;">_layout</text>
</g>
<!-- TagsController -->
<g id="node9" class="node"><title>TagsController</title>
<polyline style="fill:none;stroke:black;" points="335,-24 426,-24 "/>
<path style="fill:none;stroke:black;" d="M426,-24C432,-24 438,-30 438,-36"/>
<polyline style="fill:none;stroke:black;" points="438,-36 438,-162 "/>
<path style="fill:none;stroke:black;" d="M438,-162C438,-168 432,-174 426,-174"/>
<polyline style="fill:none;stroke:black;" points="426,-174 335,-174 "/>
<path style="fill:none;stroke:black;" d="M335,-174C329,-174 323,-168 323,-162"/>
<polyline style="fill:none;stroke:black;" points="323,-162 323,-36 "/>
<path style="fill:none;stroke:black;" d="M323,-36C323,-30 329,-24 335,-24"/>
<text text-anchor="middle" x="380" y="-156.9" style="font-family:Times New Roman;font-size:14.00;">TagsController</text>
<polyline style="fill:none;stroke:black;" points="323,-149 438,-149 "/>
<text text-anchor="start" x="330.5" y="-132.4" style="font-family:Times New Roman;font-size:14.00;">add_tag</text>
<text text-anchor="start" x="330.5" y="-115.4" style="font-family:Times New Roman;font-size:14.00;">delete_tag</text>
<text text-anchor="start" x="330.5" y="-98.4" style="font-family:Times New Roman;font-size:14.00;">get_tags</text>
<text text-anchor="start" x="330.5" y="-81.4" style="font-family:Times New Roman;font-size:14.00;">index</text>
<polyline style="fill:none;stroke:black;" points="323,-73 438,-73 "/>
<polyline style="fill:none;stroke:black;" points="323,-49 438,-49 "/>
<text text-anchor="start" x="330.5" y="-31.9" style="font-family:Times New Roman;font-size:14.00;">_layout</text>
</g>
<!-- SearchController -->
<g id="node10" class="node"><title>SearchController</title>
<polyline style="fill:none;stroke:black;" points="13,-553 226,-553 "/>
<path style="fill:none;stroke:black;" d="M226,-553C232,-553 238,-559 238,-565"/>
<polyline style="fill:none;stroke:black;" points="238,-565 238,-691 "/>
<path style="fill:none;stroke:black;" d="M238,-691C238,-697 232,-703 226,-703"/>
<polyline style="fill:none;stroke:black;" points="226,-703 13,-703 "/>
<path style="fill:none;stroke:black;" d="M13,-703C7,-703 1,-697 1,-691"/>
<polyline style="fill:none;stroke:black;" points="1,-691 1,-565 "/>
<path style="fill:none;stroke:black;" d="M1,-565C1,-559 7,-553 13,-553"/>
<text text-anchor="middle" x="119" y="-685.9" style="font-family:Times New Roman;font-size:14.00;">SearchController</text>
<polyline style="fill:none;stroke:black;" points="1,-678 238,-678 "/>
<text text-anchor="start" x="8.5" y="-660.9" style="font-family:Times New Roman;font-size:14.00;">_one_time_conditions_valid_86?</text>
<text text-anchor="start" x="8.5" y="-643.9" style="font-family:Times New Roman;font-size:14.00;">people</text>
<text text-anchor="start" x="8.5" y="-626.9" style="font-family:Times New Roman;font-size:14.00;">tags</text>
<polyline style="fill:none;stroke:black;" points="1,-619 238,-619 "/>
<polyline style="fill:none;stroke:black;" points="1,-595 238,-595 "/>
<text text-anchor="start" x="8.5" y="-578.4" style="font-family:Times New Roman;font-size:14.00;">_layout</text>
<text text-anchor="start" x="8.5" y="-561.4" style="font-family:Times New Roman;font-size:14.00;">_run_process_action_callbacks</text>
</g>
<!-- PhotosController -->
<g id="node11" class="node"><title>PhotosController</title>
<polyline style="fill:none;stroke:black;" points="13,-714 226,-714 "/>
<path style="fill:none;stroke:black;" d="M226,-714C232,-714 238,-720 238,-726"/>
<polyline style="fill:none;stroke:black;" points="238,-726 238,-886 "/>
<path style="fill:none;stroke:black;" d="M238,-886C238,-892 232,-898 226,-898"/>
<polyline style="fill:none;stroke:black;" points="226,-898 13,-898 "/>
<path style="fill:none;stroke:black;" d="M13,-898C7,-898 1,-892 1,-886"/>
<polyline style="fill:none;stroke:black;" points="1,-886 1,-726 "/>
<path style="fill:none;stroke:black;" d="M1,-726C1,-720 7,-714 13,-714"/>
<text text-anchor="middle" x="119" y="-880.9" style="font-family:Times New Roman;font-size:14.00;">PhotosController</text>
<polyline style="fill:none;stroke:black;" points="1,-873 238,-873 "/>
<text text-anchor="start" x="8.5" y="-855.9" style="font-family:Times New Roman;font-size:14.00;">_one_time_conditions_valid_88?</text>
<text text-anchor="start" x="8.5" y="-838.9" style="font-family:Times New Roman;font-size:14.00;">create</text>
<text text-anchor="start" x="8.5" y="-821.9" style="font-family:Times New Roman;font-size:14.00;">index</text>
<text text-anchor="start" x="8.5" y="-804.9" style="font-family:Times New Roman;font-size:14.00;">new</text>
<text text-anchor="start" x="8.5" y="-787.9" style="font-family:Times New Roman;font-size:14.00;">show</text>
<polyline style="fill:none;stroke:black;" points="1,-780 238,-780 "/>
<polyline style="fill:none;stroke:black;" points="1,-756 238,-756 "/>
<text text-anchor="start" x="8.5" y="-739.4" style="font-family:Times New Roman;font-size:14.00;">_layout</text>
<text text-anchor="start" x="8.5" y="-722.4" style="font-family:Times New Roman;font-size:14.00;">_run_process_action_callbacks</text>
</g>
<!-- UserSessionsController -->
<g id="node12" class="node"><title>UserSessionsController</title>
<polyline style="fill:none;stroke:black;" points="36,-230 187,-230 "/>
<path style="fill:none;stroke:black;" d="M187,-230C193,-230 199,-236 199,-242"/>
<polyline style="fill:none;stroke:black;" points="199,-242 199,-351 "/>
<path style="fill:none;stroke:black;" d="M199,-351C199,-357 193,-363 187,-363"/>
<polyline style="fill:none;stroke:black;" points="187,-363 36,-363 "/>
<path style="fill:none;stroke:black;" d="M36,-363C30,-363 24,-357 24,-351"/>
<polyline style="fill:none;stroke:black;" points="24,-351 24,-242 "/>
<path style="fill:none;stroke:black;" d="M24,-242C24,-236 30,-230 36,-230"/>
<text text-anchor="middle" x="111" y="-345.9" style="font-family:Times New Roman;font-size:14.00;">UserSessionsController</text>
<polyline style="fill:none;stroke:black;" points="24,-338 199,-338 "/>
<text text-anchor="start" x="31.5" y="-320.9" style="font-family:Times New Roman;font-size:14.00;">create</text>
<text text-anchor="start" x="31.5" y="-303.9" style="font-family:Times New Roman;font-size:14.00;">destroy</text>
<text text-anchor="start" x="31.5" y="-286.9" style="font-family:Times New Roman;font-size:14.00;">new</text>
<polyline style="fill:none;stroke:black;" points="24,-279 199,-279 "/>
<polyline style="fill:none;stroke:black;" points="24,-255 199,-255 "/>
<text text-anchor="start" x="31.5" y="-237.9" style="font-family:Times New Roman;font-size:14.00;">_layout</text>
</g>
<!-- UsersController -->
<g id="node13" class="node"><title>UsersController</title>
<polyline style="fill:none;stroke:black;" points="220,-184 433,-184 "/>
<path style="fill:none;stroke:black;" d="M433,-184C439,-184 445,-190 445,-196"/>
<polyline style="fill:none;stroke:black;" points="445,-196 445,-509 "/>
<path style="fill:none;stroke:black;" d="M445,-509C445,-515 439,-521 433,-521"/>
<polyline style="fill:none;stroke:black;" points="433,-521 220,-521 "/>
<path style="fill:none;stroke:black;" d="M220,-521C214,-521 208,-515 208,-509"/>
<polyline style="fill:none;stroke:black;" points="208,-509 208,-196 "/>
<path style="fill:none;stroke:black;" d="M208,-196C208,-190 214,-184 220,-184"/>
<text text-anchor="middle" x="326" y="-503.9" style="font-family:Times New Roman;font-size:14.00;">UsersController</text>
<polyline style="fill:none;stroke:black;" points="208,-496 445,-496 "/>
<text text-anchor="start" x="215.5" y="-479.4" style="font-family:Times New Roman;font-size:14.00;">_one_time_conditions_valid_90?</text>
<text text-anchor="start" x="215.5" y="-462.4" style="font-family:Times New Roman;font-size:14.00;">activities_interests</text>
<text text-anchor="start" x="215.5" y="-445.4" style="font-family:Times New Roman;font-size:14.00;">basic_info</text>
<text text-anchor="start" x="215.5" y="-428.4" style="font-family:Times New Roman;font-size:14.00;">contact_info</text>
<text text-anchor="start" x="215.5" y="-411.4" style="font-family:Times New Roman;font-size:14.00;">create</text>
<text text-anchor="start" x="215.5" y="-394.4" style="font-family:Times New Roman;font-size:14.00;">edit</text>
<text text-anchor="start" x="215.5" y="-377.4" style="font-family:Times New Roman;font-size:14.00;">edit_profile</text>
<text text-anchor="start" x="215.5" y="-360.4" style="font-family:Times New Roman;font-size:14.00;">education_work</text>
<text text-anchor="start" x="215.5" y="-343.4" style="font-family:Times New Roman;font-size:14.00;">home</text>
<text text-anchor="start" x="215.5" y="-326.4" style="font-family:Times New Roman;font-size:14.00;">index</text>
<text text-anchor="start" x="215.5" y="-309.4" style="font-family:Times New Roman;font-size:14.00;">new</text>
<text text-anchor="start" x="215.5" y="-292.4" style="font-family:Times New Roman;font-size:14.00;">profile_pic</text>
<text text-anchor="start" x="215.5" y="-275.4" style="font-family:Times New Roman;font-size:14.00;">sports</text>
<text text-anchor="start" x="215.5" y="-258.4" style="font-family:Times New Roman;font-size:14.00;">update</text>
<polyline style="fill:none;stroke:black;" points="208,-250 445,-250 "/>
<polyline style="fill:none;stroke:black;" points="208,-226 445,-226 "/>
<text text-anchor="start" x="215.5" y="-209.4" style="font-family:Times New Roman;font-size:14.00;">_layout</text>
<text text-anchor="start" x="215.5" y="-192.4" style="font-family:Times New Roman;font-size:14.00;">_run_process_action_callbacks</text>
</g>
</g>
</svg>
