<?xml version="1.0" encoding="UTF-8" standalone="no"?>
<!DOCTYPE svg PUBLIC "-//W3C//DTD SVG 1.0//EN"
 "http://www.w3.org/TR/2001/REC-SVG-20010904/DTD/svg10.dtd" [
 <!ATTLIST svg xmlns:xlink CDATA #FIXED "http://www.w3.org/1999/xlink">
]>
<!-- Generated by Graphviz version 2.20.2 (Tue Mar &#160;2 21:46:26 UTC 2010)
     For user: (aliadnan) Ali Adnan,,, -->
<!-- Title: models_diagram Pages: 1 -->
<svg width="1443pt" height="1552pt"
 viewBox="0.00 0.00 1443.00 1552.00" xmlns="http://www.w3.org/2000/svg" xmlns:xlink="http://www.w3.org/1999/xlink">
<g id="graph0" class="graph" transform="scale(1 1) rotate(0) translate(4 1548)">
<title>models_diagram</title>
<polygon style="fill:white;stroke:white;" points="-4,4 -4,-1548 1439,-1548 1439,4 -4,4"/>
<!-- _diagram_info -->
<g id="node1" class="node"><title>_diagram_info</title>
<text text-anchor="start" x="245.5" y="-1115.8" style="font-family:Times New Roman;font-size:13.00;">Models diagram</text>
<text text-anchor="start" x="245.5" y="-1098.8" style="font-family:Times New Roman;font-size:13.00;">Date: Jul 05 2011 &#45; 10:04</text>
<text text-anchor="start" x="245.5" y="-1081.8" style="font-family:Times New Roman;font-size:13.00;">Migration version: 20110627174435</text>
<text text-anchor="start" x="245.5" y="-1064.8" style="font-family:Times New Roman;font-size:13.00;">Generated by RailRoady 1.0.2</text>
<text text-anchor="start" x="245.5" y="-1047.8" style="font-family:Times New Roman;font-size:13.00;">http://railroady.prestonlee.com</text>
</g>
<!-- Comment -->
<g id="node2" class="node"><title>Comment</title>
<polyline style="fill:none;stroke:black;" points="222,-0 393,-0 "/>
<path style="fill:none;stroke:black;" d="M393,-0C399,-0 405,-6 405,-12"/>
<polyline style="fill:none;stroke:black;" points="405,-12 405,-106 "/>
<path style="fill:none;stroke:black;" d="M405,-106C405,-112 399,-118 393,-118"/>
<polyline style="fill:none;stroke:black;" points="393,-118 222,-118 "/>
<path style="fill:none;stroke:black;" d="M222,-118C216,-118 210,-112 210,-106"/>
<polyline style="fill:none;stroke:black;" points="210,-106 210,-12 "/>
<path style="fill:none;stroke:black;" d="M210,-12C210,-6 216,-0 222,-0"/>
<text text-anchor="middle" x="307" y="-100.9" style="font-family:Times New Roman;font-size:14.00;">Comment</text>
<polyline style="fill:none;stroke:black;" points="210,-93 405,-93 "/>
<text text-anchor="start" x="217.5" y="-75.9" style="font-family:Times New Roman;font-size:14.00;">title :string</text>
<text text-anchor="start" x="217.5" y="-58.9" style="font-family:Times New Roman;font-size:14.00;">comment :text</text>
<text text-anchor="start" x="217.5" y="-41.9" style="font-family:Times New Roman;font-size:14.00;">commentable_type :string</text>
<text text-anchor="start" x="217.5" y="-24.9" style="font-family:Times New Roman;font-size:14.00;">created_at :datetime</text>
<text text-anchor="start" x="217.5" y="-7.9" style="font-family:Times New Roman;font-size:14.00;">updated_at :datetime</text>
</g>
<!-- User -->
<g id="node3" class="node"><title>User</title>
<polyline style="fill:none;stroke:black;" points="516,-626 818,-626 "/>
<path style="fill:none;stroke:black;" d="M818,-626C824,-626 830,-632 830,-638"/>
<polyline style="fill:none;stroke:black;" points="830,-638 830,-1531 "/>
<path style="fill:none;stroke:black;" d="M830,-1531C830,-1537 824,-1543 818,-1543"/>
<polyline style="fill:none;stroke:black;" points="818,-1543 516,-1543 "/>
<path style="fill:none;stroke:black;" d="M516,-1543C510,-1543 504,-1537 504,-1531"/>
<polyline style="fill:none;stroke:black;" points="504,-1531 504,-638 "/>
<path style="fill:none;stroke:black;" d="M504,-638C504,-632 510,-626 516,-626"/>
<text text-anchor="middle" x="667" y="-1525.9" style="font-family:Times New Roman;font-size:14.00;">User</text>
<polyline style="fill:none;stroke:black;" points="504,-1518 830,-1518 "/>
<text text-anchor="start" x="512" y="-1501.4" style="font-family:Times New Roman;font-size:14.00;">email :string</text>
<text text-anchor="start" x="512" y="-1484.4" style="font-family:Times New Roman;font-size:14.00;">crypted_password :string</text>
<text text-anchor="start" x="512" y="-1467.4" style="font-family:Times New Roman;font-size:14.00;">password_salt :string</text>
<text text-anchor="start" x="512" y="-1450.4" style="font-family:Times New Roman;font-size:14.00;">persistence_token :string</text>
<text text-anchor="start" x="512" y="-1433.4" style="font-family:Times New Roman;font-size:14.00;">created_at :datetime</text>
<text text-anchor="start" x="512" y="-1416.4" style="font-family:Times New Roman;font-size:14.00;">updated_at :datetime</text>
<text text-anchor="start" x="512" y="-1399.4" style="font-family:Times New Roman;font-size:14.00;">first_name :string</text>
<text text-anchor="start" x="512" y="-1382.4" style="font-family:Times New Roman;font-size:14.00;">last_name :string</text>
<text text-anchor="start" x="512" y="-1365.4" style="font-family:Times New Roman;font-size:14.00;">location :string</text>
<text text-anchor="start" x="512" y="-1348.4" style="font-family:Times New Roman;font-size:14.00;">phone :string</text>
<text text-anchor="start" x="512" y="-1331.4" style="font-family:Times New Roman;font-size:14.00;">profile_picture_file_name :string</text>
<text text-anchor="start" x="512" y="-1314.4" style="font-family:Times New Roman;font-size:14.00;">profile_picture_content_type :string</text>
<text text-anchor="start" x="512" y="-1297.4" style="font-family:Times New Roman;font-size:14.00;">profile_picture_file_size :integer</text>
<text text-anchor="start" x="512" y="-1280.4" style="font-family:Times New Roman;font-size:14.00;">basic_current_city :string</text>
<text text-anchor="start" x="512" y="-1263.4" style="font-family:Times New Roman;font-size:14.00;">baisc_Info_home_town :string</text>
<text text-anchor="start" x="512" y="-1246.4" style="font-family:Times New Roman;font-size:14.00;">basic_info_gender :string</text>
<text text-anchor="start" x="512" y="-1229.4" style="font-family:Times New Roman;font-size:14.00;">basic_info_show_gender_in_profile :boolean</text>
<text text-anchor="start" x="512" y="-1212.4" style="font-family:Times New Roman;font-size:14.00;">basic_info_birthday :date</text>
<text text-anchor="start" x="512" y="-1195.4" style="font-family:Times New Roman;font-size:14.00;">basic_info_show_birthday_in_profile :boolean</text>
<text text-anchor="start" x="512" y="-1178.4" style="font-family:Times New Roman;font-size:14.00;">basic_info_interested_in :string</text>
<text text-anchor="start" x="512" y="-1161.4" style="font-family:Times New Roman;font-size:14.00;">basic_info_about_me :string</text>
<text text-anchor="start" x="512" y="-1144.4" style="font-family:Times New Roman;font-size:14.00;">relationship_status :string</text>
<text text-anchor="start" x="512" y="-1127.4" style="font-family:Times New Roman;font-size:14.00;">relative_name :string</text>
<text text-anchor="start" x="512" y="-1110.4" style="font-family:Times New Roman;font-size:14.00;">friends :string</text>
<text text-anchor="start" x="512" y="-1093.4" style="font-family:Times New Roman;font-size:14.00;">employer :string</text>
<text text-anchor="start" x="512" y="-1076.4" style="font-family:Times New Roman;font-size:14.00;">college_university :string</text>
<text text-anchor="start" x="512" y="-1059.4" style="font-family:Times New Roman;font-size:14.00;">high_school :string</text>
<text text-anchor="start" x="512" y="-1042.4" style="font-family:Times New Roman;font-size:14.00;">religion :string</text>
<text text-anchor="start" x="512" y="-1025.4" style="font-family:Times New Roman;font-size:14.00;">religion_description :string</text>
<text text-anchor="start" x="512" y="-1008.4" style="font-family:Times New Roman;font-size:14.00;">political_views :string</text>
<text text-anchor="start" x="512" y="-991.4" style="font-family:Times New Roman;font-size:14.00;">political_views_description :string</text>
<text text-anchor="start" x="512" y="-974.4" style="font-family:Times New Roman;font-size:14.00;">people_inspired_by :string</text>
<text text-anchor="start" x="512" y="-957.4" style="font-family:Times New Roman;font-size:14.00;">favorite_quotations :string</text>
<text text-anchor="start" x="512" y="-940.4" style="font-family:Times New Roman;font-size:14.00;">music :string</text>
<text text-anchor="start" x="512" y="-923.4" style="font-family:Times New Roman;font-size:14.00;">books :string</text>
<text text-anchor="start" x="512" y="-906.4" style="font-family:Times New Roman;font-size:14.00;">movies :string</text>
<text text-anchor="start" x="512" y="-889.4" style="font-family:Times New Roman;font-size:14.00;">television :string</text>
<text text-anchor="start" x="512" y="-872.4" style="font-family:Times New Roman;font-size:14.00;">games :string</text>
<text text-anchor="start" x="512" y="-855.4" style="font-family:Times New Roman;font-size:14.00;">sports_played :string</text>
<text text-anchor="start" x="512" y="-838.4" style="font-family:Times New Roman;font-size:14.00;">favorite_team :string</text>
<text text-anchor="start" x="512" y="-821.4" style="font-family:Times New Roman;font-size:14.00;">favorite_athletes :string</text>
<text text-anchor="start" x="512" y="-804.4" style="font-family:Times New Roman;font-size:14.00;">activities :string</text>
<text text-anchor="start" x="512" y="-787.4" style="font-family:Times New Roman;font-size:14.00;">interests :string</text>
<text text-anchor="start" x="512" y="-770.4" style="font-family:Times New Roman;font-size:14.00;">im_screen_name :string</text>
<text text-anchor="start" x="512" y="-753.4" style="font-family:Times New Roman;font-size:14.00;">phones :string</text>
<text text-anchor="start" x="512" y="-736.4" style="font-family:Times New Roman;font-size:14.00;">address :string</text>
<text text-anchor="start" x="512" y="-719.4" style="font-family:Times New Roman;font-size:14.00;">city_town :string</text>
<text text-anchor="start" x="512" y="-702.4" style="font-family:Times New Roman;font-size:14.00;">zip :string</text>
<text text-anchor="start" x="512" y="-685.4" style="font-family:Times New Roman;font-size:14.00;">neighborhood :string</text>
<text text-anchor="start" x="512" y="-668.4" style="font-family:Times New Roman;font-size:14.00;">website :string</text>
<text text-anchor="start" x="512" y="-651.4" style="font-family:Times New Roman;font-size:14.00;">im_gmail_screen_name :string</text>
<text text-anchor="start" x="512" y="-634.4" style="font-family:Times New Roman;font-size:14.00;">im_skype_screen_name :string</text>
</g>
<!-- User&#45;&gt;User -->
<g id="edge2" class="edge"><title>User&#45;&gt;User</title>
<path style="fill:none;stroke:black;" d="M839,-1101C845,-1096 848,-1091 848,-1085 848,-1079 845,-1074 839,-1069"/>
<polygon style="fill:black;stroke:black;" points="838.742,-1101.14 827.815,-1102.07 834.371,-1103.57 830,-1106 830,-1106 830,-1106 834.371,-1103.57 832.185,-1109.93 838.742,-1101.14 838.742,-1101.14"/>
<polygon style="fill:black;stroke:black;" points="838.742,-1068.86 832.185,-1060.07 834.371,-1066.43 830,-1064 830,-1064 830,-1064 834.371,-1066.43 827.815,-1067.93 838.742,-1068.86 838.742,-1068.86"/>
<text text-anchor="middle" x="872" y="-1080.9" style="font-family:Times New Roman;font-size:14.00;">friends</text>
</g>
<!-- User&#45;&gt;User -->
<g id="edge4" class="edge"><title>User&#45;&gt;User</title>
<path style="fill:none;stroke:black;" d="M840,-1140C872,-1132 895,-1114 895,-1085 895,-1056 872,-1038 840,-1030"/>
<polygon style="fill:black;stroke:black;" points="839.806,-1140.04 829.117,-1137.59 834.903,-1141.02 830,-1142 830,-1142 830,-1142 834.903,-1141.02 830.883,-1146.41 839.806,-1140.04 839.806,-1140.04"/>
<polygon style="fill:black;stroke:black;" points="839.806,-1029.96 830.883,-1023.59 834.903,-1028.98 830,-1028 830,-1028 830,-1028 834.903,-1028.98 829.117,-1032.41 839.806,-1029.96 839.806,-1029.96"/>
<text text-anchor="middle" x="957" y="-1080.9" style="font-family:Times New Roman;font-size:14.00;">requested_friends</text>
</g>
<!-- User&#45;&gt;User -->
<g id="edge6" class="edge"><title>User&#45;&gt;User</title>
<path style="fill:none;stroke:black;" d="M840,-1171C930,-1180 1018,-1151 1018,-1085 1018,-1019 930,-990 840,-999"/>
<polygon style="fill:black;stroke:black;" points="839.95,-1171 830.448,-1165.52 834.975,-1170.5 830,-1170 830,-1170 830,-1170 834.975,-1170.5 829.552,-1174.48 839.95,-1171 839.95,-1171"/>
<polygon style="fill:black;stroke:black;" points="839.95,-999.005 829.552,-995.522 834.975,-999.502 830,-1000 830,-1000 830,-1000 834.975,-999.502 830.448,-1004.48 839.95,-999.005 839.95,-999.005"/>
<text text-anchor="middle" x="1072" y="-1080.9" style="font-family:Times New Roman;font-size:14.00;">pending_friends</text>
</g>
<!-- Friendship -->
<g id="node4" class="node"><title>Friendship</title>
<polyline style="fill:none;stroke:black;" points="649,-487 790,-487 "/>
<path style="fill:none;stroke:black;" d="M790,-487C796,-487 802,-493 802,-499"/>
<polyline style="fill:none;stroke:black;" points="802,-499 802,-559 "/>
<path style="fill:none;stroke:black;" d="M802,-559C802,-565 796,-571 790,-571"/>
<polyline style="fill:none;stroke:black;" points="790,-571 649,-571 "/>
<path style="fill:none;stroke:black;" d="M649,-571C643,-571 637,-565 637,-559"/>
<polyline style="fill:none;stroke:black;" points="637,-559 637,-499 "/>
<path style="fill:none;stroke:black;" d="M637,-499C637,-493 643,-487 649,-487"/>
<text text-anchor="middle" x="719" y="-553.9" style="font-family:Times New Roman;font-size:14.00;">Friendship</text>
<polyline style="fill:none;stroke:black;" points="637,-546 802,-546 "/>
<text text-anchor="start" x="644.5" y="-528.9" style="font-family:Times New Roman;font-size:14.00;">status :string</text>
<text text-anchor="start" x="644.5" y="-511.9" style="font-family:Times New Roman;font-size:14.00;">created_at :datetime</text>
<text text-anchor="start" x="644.5" y="-494.9" style="font-family:Times New Roman;font-size:14.00;">updated_at :datetime</text>
</g>
<!-- User&#45;&gt;Friendship -->
<g id="edge8" class="edge"><title>User&#45;&gt;Friendship</title>
<path style="fill:none;stroke:black;" d="M711,-618C712,-605 713,-592 714,-581"/>
<ellipse style="fill:none;stroke:black;" cx="710.496" cy="-622.031" rx="4.00001" ry="4.00001"/>
<polygon style="fill:black;stroke:black;" points="714.005,-580.95 719.478,-571.448 714.502,-575.975 715,-571 715,-571 715,-571 714.502,-575.975 710.522,-570.552 714.005,-580.95 714.005,-580.95"/>
</g>
<!-- Activity -->
<g id="node6" class="node"><title>Activity</title>
<polyline style="fill:none;stroke:black;" points="237,-165 378,-165 "/>
<path style="fill:none;stroke:black;" d="M378,-165C384,-165 390,-171 390,-177"/>
<polyline style="fill:none;stroke:black;" points="390,-177 390,-237 "/>
<path style="fill:none;stroke:black;" d="M390,-237C390,-243 384,-249 378,-249"/>
<polyline style="fill:none;stroke:black;" points="378,-249 237,-249 "/>
<path style="fill:none;stroke:black;" d="M237,-249C231,-249 225,-243 225,-237"/>
<polyline style="fill:none;stroke:black;" points="225,-237 225,-177 "/>
<path style="fill:none;stroke:black;" d="M225,-177C225,-171 231,-165 237,-165"/>
<text text-anchor="middle" x="307" y="-231.9" style="font-family:Times New Roman;font-size:14.00;">Activity</text>
<polyline style="fill:none;stroke:black;" points="225,-224 390,-224 "/>
<text text-anchor="start" x="232.5" y="-206.9" style="font-family:Times New Roman;font-size:14.00;">item_type :string</text>
<text text-anchor="start" x="232.5" y="-189.9" style="font-family:Times New Roman;font-size:14.00;">created_at :datetime</text>
<text text-anchor="start" x="232.5" y="-172.9" style="font-family:Times New Roman;font-size:14.00;">updated_at :datetime</text>
</g>
<!-- User&#45;&gt;Activity -->
<g id="edge14" class="edge"><title>User&#45;&gt;Activity</title>
<path style="fill:none;stroke:black;" d="M498,-629C497,-628 496,-627 495,-626 418,-545 96,-524 34,-432 1,-381 -1,-344 34,-296 56,-265 145,-240 215,-225"/>
<ellipse style="fill:none;stroke:black;" cx="501.172" cy="-632.172" rx="4.00002" ry="4.00002"/>
<polygon style="fill:black;stroke:black;" points="215.194,-224.961 225.883,-227.413 220.097,-223.981 225,-223 225,-223 225,-223 220.097,-223.981 224.117,-218.587 215.194,-224.961 215.194,-224.961"/>
</g>
<!-- Album -->
<g id="node9" class="node"><title>Album</title>
<polyline style="fill:none;stroke:black;" points="467,-470 608,-470 "/>
<path style="fill:none;stroke:black;" d="M608,-470C614,-470 620,-476 620,-482"/>
<polyline style="fill:none;stroke:black;" points="620,-482 620,-576 "/>
<path style="fill:none;stroke:black;" d="M620,-576C620,-582 614,-588 608,-588"/>
<polyline style="fill:none;stroke:black;" points="608,-588 467,-588 "/>
<path style="fill:none;stroke:black;" d="M467,-588C461,-588 455,-582 455,-576"/>
<polyline style="fill:none;stroke:black;" points="455,-576 455,-482 "/>
<path style="fill:none;stroke:black;" d="M455,-482C455,-476 461,-470 467,-470"/>
<text text-anchor="middle" x="537" y="-570.9" style="font-family:Times New Roman;font-size:14.00;">Album</text>
<polyline style="fill:none;stroke:black;" points="455,-563 620,-563 "/>
<text text-anchor="start" x="462.5" y="-545.9" style="font-family:Times New Roman;font-size:14.00;">name :string</text>
<text text-anchor="start" x="462.5" y="-528.9" style="font-family:Times New Roman;font-size:14.00;">location :string</text>
<text text-anchor="start" x="462.5" y="-511.9" style="font-family:Times New Roman;font-size:14.00;">description :string</text>
<text text-anchor="start" x="462.5" y="-494.9" style="font-family:Times New Roman;font-size:14.00;">created_at :datetime</text>
<text text-anchor="start" x="462.5" y="-477.9" style="font-family:Times New Roman;font-size:14.00;">updated_at :datetime</text>
</g>
<!-- User&#45;&gt;Album -->
<g id="edge12" class="edge"><title>User&#45;&gt;Album</title>
<path style="fill:none;stroke:black;" d="M558,-618C557,-611 555,-604 553,-598"/>
<ellipse style="fill:none;stroke:black;" cx="559.03" cy="-622.119" rx="4.00001" ry="4.00001"/>
<polygon style="fill:black;stroke:black;" points="552.961,-597.806 555.413,-587.117 551.981,-592.903 551,-588 551,-588 551,-588 551.981,-592.903 546.587,-588.883 552.961,-597.806 552.961,-597.806"/>
</g>
<!-- Tag -->
<g id="node12" class="node"><title>Tag</title>
<polyline style="fill:none;stroke:black;" points="725,-156 866,-156 "/>
<path style="fill:none;stroke:black;" d="M866,-156C872,-156 878,-162 878,-168"/>
<polyline style="fill:none;stroke:black;" points="878,-168 878,-245 "/>
<path style="fill:none;stroke:black;" d="M878,-245C878,-251 872,-257 866,-257"/>
<polyline style="fill:none;stroke:black;" points="866,-257 725,-257 "/>
<path style="fill:none;stroke:black;" d="M725,-257C719,-257 713,-251 713,-245"/>
<polyline style="fill:none;stroke:black;" points="713,-245 713,-168 "/>
<path style="fill:none;stroke:black;" d="M713,-168C713,-162 719,-156 725,-156"/>
<text text-anchor="middle" x="795" y="-239.9" style="font-family:Times New Roman;font-size:14.00;">Tag</text>
<polyline style="fill:none;stroke:black;" points="713,-232 878,-232 "/>
<text text-anchor="start" x="720.5" y="-215.4" style="font-family:Times New Roman;font-size:14.00;">created_at :datetime</text>
<text text-anchor="start" x="720.5" y="-198.4" style="font-family:Times New Roman;font-size:14.00;">updated_at :datetime</text>
<text text-anchor="start" x="720.5" y="-181.4" style="font-family:Times New Roman;font-size:14.00;">left :integer</text>
<text text-anchor="start" x="720.5" y="-164.4" style="font-family:Times New Roman;font-size:14.00;">top :integer</text>
</g>
<!-- User&#45;&gt;Tag -->
<g id="edge10" class="edge"><title>User&#45;&gt;Tag</title>
<path style="fill:none;stroke:black;" d="M805,-618C807,-608 808,-598 810,-588 829,-459 821,-425 810,-296 809,-286 808,-277 807,-267"/>
<ellipse style="fill:none;stroke:black;" cx="804.496" cy="-622.031" rx="4.00001" ry="4.00001"/>
<polygon style="fill:black;stroke:black;" points="806.961,-266.806 809.413,-256.117 805.981,-261.903 805,-257 805,-257 805,-257 805.981,-261.903 800.587,-257.883 806.961,-266.806 806.961,-266.806"/>
</g>
<!-- Photo -->
<g id="node5" class="node"><title>Photo</title>
<polyline style="fill:none;stroke:black;" points="601,-296 789,-296 "/>
<path style="fill:none;stroke:black;" d="M789,-296C795,-296 801,-302 801,-308"/>
<polyline style="fill:none;stroke:black;" points="801,-308 801,-419 "/>
<path style="fill:none;stroke:black;" d="M801,-419C801,-425 795,-431 789,-431"/>
<polyline style="fill:none;stroke:black;" points="789,-431 601,-431 "/>
<path style="fill:none;stroke:black;" d="M601,-431C595,-431 589,-425 589,-419"/>
<polyline style="fill:none;stroke:black;" points="589,-419 589,-308 "/>
<path style="fill:none;stroke:black;" d="M589,-308C589,-302 595,-296 601,-296"/>
<text text-anchor="middle" x="695" y="-413.9" style="font-family:Times New Roman;font-size:14.00;">Photo</text>
<polyline style="fill:none;stroke:black;" points="589,-406 801,-406 "/>
<text text-anchor="start" x="597" y="-389.4" style="font-family:Times New Roman;font-size:14.00;">caption :string</text>
<text text-anchor="start" x="597" y="-372.4" style="font-family:Times New Roman;font-size:14.00;">created_at :datetime</text>
<text text-anchor="start" x="597" y="-355.4" style="font-family:Times New Roman;font-size:14.00;">updated_at :datetime</text>
<text text-anchor="start" x="597" y="-338.4" style="font-family:Times New Roman;font-size:14.00;">picture_file_name :string</text>
<text text-anchor="start" x="597" y="-321.4" style="font-family:Times New Roman;font-size:14.00;">picture_content_type :string</text>
<text text-anchor="start" x="597" y="-304.4" style="font-family:Times New Roman;font-size:14.00;">picture_file_size :integer</text>
</g>
<!-- Photo&#45;&gt;Activity -->
<g id="edge18" class="edge"><title>Photo&#45;&gt;Activity</title>
<path style="fill:none;stroke:black;" d="M582,-297C581,-296 581,-296 580,-296 521,-269 452,-246 398,-231"/>
<ellipse style="fill:none;stroke:black;" cx="585.323" cy="-298.424" rx="4.00002" ry="4.00002"/>
<ellipse style="fill:black;stroke:black;" cx="393.881" cy="-229.97" rx="4.00001" ry="4.00001"/>
</g>
<!-- Photo&#45;&gt;Tag -->
<g id="edge16" class="edge"><title>Photo&#45;&gt;Tag</title>
<path style="fill:none;stroke:black;" d="M743,-289C748,-281 753,-274 758,-266"/>
<ellipse style="fill:none;stroke:black;" cx="740.985" cy="-292.527" rx="4.00002" ry="4.00002"/>
<polygon style="fill:black;stroke:black;" points="758.144,-265.742 766.934,-259.185 760.572,-261.371 763,-257 763,-257 763,-257 760.572,-261.371 759.066,-254.815 758.144,-265.742 758.144,-265.742"/>
</g>
<!-- Activity&#45;&gt;Comment -->
<g id="edge20" class="edge"><title>Activity&#45;&gt;Comment</title>
<path style="fill:none;stroke:black;" d="M307,-157C307,-147 307,-138 307,-128"/>
<ellipse style="fill:none;stroke:black;" cx="307" cy="-161" rx="4" ry="4"/>
<polygon style="fill:black;stroke:black;" points="307,-128 311.5,-118 307,-123 307,-118 307,-118 307,-118 307,-123 302.5,-118 307,-128 307,-128"/>
</g>
<!-- UserSession -->
<g id="node7" class="node"><title>UserSession</title>
<polygon style="fill:none;stroke:black;" points="1259,-504 1259,-554 1358,-554 1358,-504 1259,-504"/>
<text text-anchor="middle" x="1308" y="-536.9" style="font-family:Times New Roman;font-size:14.00;">UserSession</text>
<polyline style="fill:none;stroke:black;" points="1259,-529 1358,-529 "/>
<text text-anchor="middle" x="1308" y="-511.9" style="font-family:Times New Roman;font-size:14.00;"> </text>
</g>
<!-- Video -->
<g id="node8" class="node"><title>Video</title>
<polyline style="fill:none;stroke:black;" points="55,-322 196,-322 "/>
<path style="fill:none;stroke:black;" d="M196,-322C202,-322 208,-328 208,-334"/>
<polyline style="fill:none;stroke:black;" points="208,-334 208,-394 "/>
<path style="fill:none;stroke:black;" d="M208,-394C208,-400 202,-406 196,-406"/>
<polyline style="fill:none;stroke:black;" points="196,-406 55,-406 "/>
<path style="fill:none;stroke:black;" d="M55,-406C49,-406 43,-400 43,-394"/>
<polyline style="fill:none;stroke:black;" points="43,-394 43,-334 "/>
<path style="fill:none;stroke:black;" d="M43,-334C43,-328 49,-322 55,-322"/>
<text text-anchor="middle" x="125" y="-388.9" style="font-family:Times New Roman;font-size:14.00;">Video</text>
<polyline style="fill:none;stroke:black;" points="43,-381 208,-381 "/>
<text text-anchor="start" x="50.5" y="-363.9" style="font-family:Times New Roman;font-size:14.00;">url :string</text>
<text text-anchor="start" x="50.5" y="-346.9" style="font-family:Times New Roman;font-size:14.00;">created_at :datetime</text>
<text text-anchor="start" x="50.5" y="-329.9" style="font-family:Times New Roman;font-size:14.00;">updated_at :datetime</text>
</g>
<!-- Video&#45;&gt;Activity -->
<g id="edge24" class="edge"><title>Video&#45;&gt;Activity</title>
<path style="fill:none;stroke:black;" d="M180,-317C203,-297 229,-274 252,-254"/>
<ellipse style="fill:none;stroke:black;" cx="177.073" cy="-319.439" rx="4.00002" ry="4.00002"/>
<ellipse style="fill:black;stroke:black;" cx="254.927" cy="-251.561" rx="4.00002" ry="4.00002"/>
</g>
<!-- Album&#45;&gt;Photo -->
<g id="edge26" class="edge"><title>Album&#45;&gt;Photo</title>
<path style="fill:none;stroke:black;" d="M600,-464C608,-455 616,-447 624,-438"/>
<ellipse style="fill:none;stroke:black;" cx="596.828" cy="-467.172" rx="4.00002" ry="4.00002"/>
<polygon style="fill:black;stroke:black;" points="623.929,-438.071 634.182,-434.182 627.464,-434.536 631,-431 631,-431 631,-431 627.464,-434.536 627.818,-427.818 623.929,-438.071 623.929,-438.071"/>
</g>
<!-- Status -->
<g id="node10" class="node"><title>Status</title>
<polyline style="fill:none;stroke:black;" points="237,-322 378,-322 "/>
<path style="fill:none;stroke:black;" d="M378,-322C384,-322 390,-328 390,-334"/>
<polyline style="fill:none;stroke:black;" points="390,-334 390,-394 "/>
<path style="fill:none;stroke:black;" d="M390,-394C390,-400 384,-406 378,-406"/>
<polyline style="fill:none;stroke:black;" points="378,-406 237,-406 "/>
<path style="fill:none;stroke:black;" d="M237,-406C231,-406 225,-400 225,-394"/>
<polyline style="fill:none;stroke:black;" points="225,-394 225,-334 "/>
<path style="fill:none;stroke:black;" d="M225,-334C225,-328 231,-322 237,-322"/>
<text text-anchor="middle" x="307" y="-388.9" style="font-family:Times New Roman;font-size:14.00;">Status</text>
<polyline style="fill:none;stroke:black;" points="225,-381 390,-381 "/>
<text text-anchor="start" x="232.5" y="-363.9" style="font-family:Times New Roman;font-size:14.00;">text :string</text>
<text text-anchor="start" x="232.5" y="-346.9" style="font-family:Times New Roman;font-size:14.00;">created_at :datetime</text>
<text text-anchor="start" x="232.5" y="-329.9" style="font-family:Times New Roman;font-size:14.00;">updated_at :datetime</text>
</g>
<!-- Status&#45;&gt;Activity -->
<g id="edge28" class="edge"><title>Status&#45;&gt;Activity</title>
<path style="fill:none;stroke:black;" d="M307,-314C307,-296 307,-275 307,-257"/>
<ellipse style="fill:none;stroke:black;" cx="307" cy="-318" rx="4" ry="4"/>
<ellipse style="fill:black;stroke:black;" cx="307" cy="-253" rx="4" ry="4"/>
</g>
<!-- Link -->
<g id="node11" class="node"><title>Link</title>
<polyline style="fill:none;stroke:black;" points="419,-322 560,-322 "/>
<path style="fill:none;stroke:black;" d="M560,-322C566,-322 572,-328 572,-334"/>
<polyline style="fill:none;stroke:black;" points="572,-334 572,-394 "/>
<path style="fill:none;stroke:black;" d="M572,-394C572,-400 566,-406 560,-406"/>
<polyline style="fill:none;stroke:black;" points="560,-406 419,-406 "/>
<path style="fill:none;stroke:black;" d="M419,-406C413,-406 407,-400 407,-394"/>
<polyline style="fill:none;stroke:black;" points="407,-394 407,-334 "/>
<path style="fill:none;stroke:black;" d="M407,-334C407,-328 413,-322 419,-322"/>
<text text-anchor="middle" x="489" y="-388.9" style="font-family:Times New Roman;font-size:14.00;">Link</text>
<polyline style="fill:none;stroke:black;" points="407,-381 572,-381 "/>
<text text-anchor="start" x="414.5" y="-363.9" style="font-family:Times New Roman;font-size:14.00;">url :string</text>
<text text-anchor="start" x="414.5" y="-346.9" style="font-family:Times New Roman;font-size:14.00;">created_at :datetime</text>
<text text-anchor="start" x="414.5" y="-329.9" style="font-family:Times New Roman;font-size:14.00;">updated_at :datetime</text>
</g>
<!-- Link&#45;&gt;Activity -->
<g id="edge30" class="edge"><title>Link&#45;&gt;Activity</title>
<path style="fill:none;stroke:black;" d="M434,-317C411,-297 385,-274 362,-254"/>
<ellipse style="fill:none;stroke:black;" cx="436.927" cy="-319.439" rx="4.00002" ry="4.00002"/>
<ellipse style="fill:black;stroke:black;" cx="359.073" cy="-251.561" rx="4.00002" ry="4.00002"/>
</g>
<!-- Authlogic::Session::Base -->
<g id="node23" class="node"><title>Authlogic::Session::Base</title>
<ellipse style="fill:none;stroke:black;" cx="1308" cy="-1085" rx="127.163" ry="18"/>
<text text-anchor="middle" x="1308" y="-1080.9" style="font-family:Times New Roman;font-size:14.00;">Authlogic::Session::Base</text>
</g>
<!-- Authlogic::Session::Base&#45;&gt;UserSession -->
<g id="edge22" class="edge"><title>Authlogic::Session::Base&#45;&gt;UserSession</title>
<path style="fill:none;stroke:black;" d="M1308,-1057C1308,-960 1308,-646 1308,-554"/>
<polygon style="fill:none;stroke:black;" points="1304.5,-1057 1308,-1067 1311.5,-1057 1304.5,-1057"/>
</g>
</g>
</svg>
